<?xml version="1.0" encoding="utf-8"?>
<!-- Generator: Adobe Illustrator 24.0.0, SVG Export Plug-In . SVG Version: 6.00 Build 0)  -->
<svg version="1.1" id="Layer_1" xmlns="http://www.w3.org/2000/svg" xmlns:xlink="http://www.w3.org/1999/xlink" x="0px" y="0px"
	 viewBox="0 0 100 100" style="enable-background:new 0 0 100 100;" xml:space="preserve">
<style type="text/css">
	.st0{fill:url(#SVGID_1_);}
	.st1{fill:url(#SVGID_2_);}
	.st2{fill:url(#SVGID_3_);}
	.st3{fill:#4F4F67;}
	.st4{fill:url(#SVGID_4_);}
</style>
<g>
	
		<linearGradient id="SVGID_1_" gradientUnits="userSpaceOnUse" x1="50" y1="102" x2="50" y2="34.8062" gradientTransform="matrix(1 0 0 -1 0 102)">
		<stop  offset="0" style="stop-color:#E04300"/>
		<stop  offset="1" style="stop-color:#FFA320"/>
	</linearGradient>
	<path class="st0" d="M100,50c0,13.3-5.3,26-14.6,35.4C76,94.7,63.3,100,50,100c-13.3,0-26-5.3-35.4-14.6C5.3,76,0,63.3,0,50
		c0-13.3,5.3-26,14.6-35.4C24,5.3,36.7,0,50,0c13.3,0,26,5.3,35.4,14.6C94.7,24,100,36.7,100,50"/>
	<path d="M32.5,84.7c0,3.3,7.8,2.8,17.5,2.8c9.7,0,17.5,0.5,17.5-2.8c0-4-7.8-6.6-17.5-6.6C40.3,78.1,32.5,80.7,32.5,84.7z"/>
	
		<linearGradient id="SVGID_2_" gradientUnits="userSpaceOnUse" x1="50.0013" y1="22.6062" x2="50.0013" y2="14.5" gradientTransform="matrix(1 0 0 -1 0 102)">
		<stop  offset="0" style="stop-color:#3D0D00"/>
		<stop  offset="1" style="stop-color:#661C04"/>
	</linearGradient>
	<path class="st1" d="M32.5,84.7c0,3.3,7.8,2.8,17.5,2.8c9.7,0,17.5,0.5,17.5-2.8c0-4-7.8-6.6-17.5-6.6
		C40.3,78.1,32.5,80.7,32.5,84.7z"/>
	
		<linearGradient id="SVGID_3_" gradientUnits="userSpaceOnUse" x1="49.9978" y1="49.4976" x2="49.9978" y2="33.2475" gradientTransform="matrix(1 0 0 -1 0 102)">
		<stop  offset="0" style="stop-color:#191A33"/>
		<stop  offset="0.872" style="stop-color:#3B426A"/>
	</linearGradient>
	<path class="st2" d="M22.5,61.4c0-4.9,3.4-8.9,7.5-8.9c4.1,0,7.5,4,7.5,8.9c0,2.1-0.6,4-1.6,5.5c-0.5,0.7-1.2,1.2-2,1.4
		c-0.9,0.2-2.3,0.5-3.9,0.5c-1.6,0-3-0.2-3.9-0.5c-0.8-0.2-1.5-0.7-2-1.4C23,65.3,22.5,63.4,22.5,61.4L22.5,61.4z M62.5,61.4
		c0-4.9,3.4-8.9,7.5-8.9c4.1,0,7.5,4,7.5,8.9c0,2.1-0.6,4-1.6,5.5c-0.5,0.7-1.2,1.2-2,1.4c-1.3,0.3-2.6,0.5-3.9,0.5
		c-1.6,0-3-0.2-3.9-0.5c-0.8-0.2-1.5-0.7-2-1.4C63,65.3,62.5,63.4,62.5,61.4z"/>
	<path d="M22.5,61.4c0-4.9,3.4-8.9,7.5-8.9c4.1,0,7.5,4,7.5,8.9c0,2.1-0.6,4-1.6,5.5c-0.5,0.7-1.2,1.2-2,1.4
		c-0.9,0.2-2.3,0.5-3.9,0.5c-1.6,0-3-0.2-3.9-0.5c-0.8-0.2-1.5-0.7-2-1.4C23,65.3,22.5,63.4,22.5,61.4L22.5,61.4z M62.5,61.4
		c0-4.9,3.4-8.9,7.5-8.9c4.1,0,7.5,4,7.5,8.9c0,2.1-0.6,4-1.6,5.5c-0.5,0.7-1.2,1.2-2,1.4c-1.3,0.3-2.6,0.5-3.9,0.5
		c-1.6,0-3-0.2-3.9-0.5c-0.8-0.2-1.5-0.7-2-1.4C63,65.3,62.5,63.4,62.5,61.4z"/>
	<path class="st3" d="M31.1,58.3c0,0.1,0,0.3,0,0.4c0,1.3-1.1,2.3-2.5,2.3c-1.4,0-2.5-1-2.5-2.3c0-0.5,0.2-1,0.5-1.4
		C28.1,57.7,29.5,58,31.1,58.3z M68.1,61.1c-1.3,0-2.4-1-2.5-2.2c1.6-0.2,3.2-0.5,4.8-0.9c0.1,0.2,0.1,0.5,0.1,0.7
		C70.5,60,69.5,61.1,68.1,61.1L68.1,61.1z"/>
	<path d="M56.2,47.5c0-2.8,1-3.8,2.8-3.8c1.8,0,2.6,1.7,3.2,6.7c7.1,0,19-3.3,20.1-3.3c1.1,0,1.7,0.5,2,1.7c0.2,1-0.1,1.9-1.4,2.5
		C79,53,67.7,57.1,58,57.1c-1.1,0-1.8-0.5-1.8-1.9V47.5z M37.8,50.4c0.6-4.9,1.4-6.7,3.2-6.7c1.8,0,2.8,1,2.8,3.8v7.7
		c0,1.3-0.7,1.9-1.8,1.9c-9.6,0-21-4-24.9-5.8c-1.2-0.6-1.6-1.5-1.4-2.5c0.3-1.1,0.9-1.7,2-1.7C18.8,47.1,30.8,50.4,37.8,50.4z"/>
	
		<linearGradient id="SVGID_4_" gradientUnits="userSpaceOnUse" x1="49.9975" y1="43.6687" x2="49.9975" y2="58.25" gradientTransform="matrix(1 0 0 -1 0 102)">
		<stop  offset="0" style="stop-color:#9A2F00"/>
		<stop  offset="1" style="stop-color:#D44800"/>
	</linearGradient>
	<path class="st4" d="M56.2,47.5c0-2.8,1-3.8,2.8-3.8c1.8,0,2.6,1.7,3.2,6.7c7.1,0,19-3.3,20.1-3.3c1.1,0,1.7,0.5,2,1.7
		c0.2,1-0.1,1.9-1.4,2.5C79,53,67.7,57.1,58,57.1c-1.1,0-1.8-0.5-1.8-1.9V47.5z M37.8,50.4c0.6-4.9,1.4-6.7,3.2-6.7
		c1.8,0,2.8,1,2.8,3.8v7.7c0,1.3-0.7,1.9-1.8,1.9c-9.6,0-21-4-24.9-5.8c-1.2-0.6-1.6-1.5-1.4-2.5c0.3-1.1,0.9-1.7,2-1.7
		C18.8,47.1,30.8,50.4,37.8,50.4z"/>
</g>
</svg>
